# xmcd
#
# Track frame offsets: 
#        150
#        18882
#        41936
#        77334
#        92830
#        115587
#        134049
#        152414
#        171064
#        190687
#        207864
#        222783
#        243600
#        271157
#        283880
#        305928
#        320927
#
# Disc length: 4744 seconds
#
# Revision: 0
# Processed by: cddbd v1.5.2PL0 Copyright (c) Steve Scherf et al.
# Submitted via: ExactAudioCopy v1.3
#
DISCID=f5128611
DTITLE=Various Artist - Akella Presents - vol. 220 - Various Styles O
DTITLE=f Blues  CD2
DYEAR=2019
DGENRE=Blues
TTITLE0=Thorbjorn Risager - Come On In
TTITLE1=Gregg Rolie - Breaking My Heart
TTITLE2=Dave Riley - Lets straighten it out
TTITLE3=Sugar Blue - And the Devil Too
TTITLE4=Dennis Glen Avina - Don't Lie To Me
TTITLE5=Matteo Pizzoli's True Grit - I Don't Get You
TTITLE6=Jimmy T and Sidetracked - Sweet Tooth
TTITLE7=Hammer Smith Band - Down But Not Out
TTITLE8=Tubesnakes - Walking
TTITLE9=Kerry Kearney - Roll over Beethoven
TTITLE10=Big Al and the Heavyweights - Shout For More
TTITLE11=Habaka - I Sing the Blues (Down and Dirty)
TTITLE12=Kern Pratt - Baby's Got Another Lover
TTITLE13=Orion Trotter - Bittersweet Death
TTITLE14=Oscar Benton - No Hunger No Fear
TTITLE15=Mike Zito and Friends - St. Louis Blues
TTITLE16=Blues Connexion - I'd Rather Go Blind
EXTD=
EXTT0=
EXTT1=
EXTT2=
EXTT3=
EXTT4=
EXTT5=
EXTT6=
EXTT7=
EXTT8=
EXTT9=
EXTT10=
EXTT11=
EXTT12=
EXTT13=
EXTT14=
EXTT15=
EXTT16=
PLAYORDER=
